<mxfile host="Electron" agent="Mozilla/5.0 (Windows NT 10.0; Win64; x64) AppleWebKit/537.36 (KHTML, like Gecko) draw.io/24.7.17 Chrome/128.0.6613.36 Electron/32.0.1 Safari/537.36" version="24.7.17">
  <diagram name="1 oldal" id="H1aZna8pCs1Ph8L2109_">
    <mxGraphModel dx="395" dy="398" grid="1" gridSize="10" guides="1" tooltips="1" connect="1" arrows="1" fold="1" page="1" pageScale="1" pageWidth="827" pageHeight="1169" math="0" shadow="0">
      <root>
        <mxCell id="0" />
        <mxCell id="1" parent="0" />
        <mxCell id="UiRvnEF1rh2FKo7EIy8x-72" value="Vizsgálatok" style="shape=table;startSize=30;container=1;collapsible=0;childLayout=tableLayout;strokeColor=default;fontSize=16;align=center;verticalAlign=middle;fontFamily=Helvetica;fontColor=default;fontStyle=1;fillColor=default;" parent="1" vertex="1">
          <mxGeometry x="930" y="320" width="500" height="80" as="geometry" />
        </mxCell>
        <mxCell id="UiRvnEF1rh2FKo7EIy8x-73" style="shape=tableRow;horizontal=0;startSize=0;swimlaneHead=0;swimlaneBody=0;strokeColor=inherit;top=0;left=0;bottom=0;right=0;collapsible=0;dropTarget=0;fillColor=none;points=[[0,0.5],[1,0.5]];portConstraint=eastwest;fontSize=16;align=center;verticalAlign=middle;fontFamily=Helvetica;fontColor=default;fontStyle=1;" parent="UiRvnEF1rh2FKo7EIy8x-72" vertex="1">
          <mxGeometry y="30" width="500" height="50" as="geometry" />
        </mxCell>
        <mxCell id="UiRvnEF1rh2FKo7EIy8x-74" value="&lt;u&gt;vizsgalat_id&lt;/u&gt;&lt;div&gt;&lt;u&gt;PK&lt;/u&gt;&lt;/div&gt;" style="shape=partialRectangle;html=1;whiteSpace=wrap;connectable=0;strokeColor=inherit;overflow=hidden;fillColor=none;top=0;left=0;bottom=0;right=0;pointerEvents=1;fontSize=16;align=center;verticalAlign=middle;fontFamily=Helvetica;fontColor=default;fontStyle=1;" parent="UiRvnEF1rh2FKo7EIy8x-73" vertex="1">
          <mxGeometry width="100" height="50" as="geometry">
            <mxRectangle width="100" height="50" as="alternateBounds" />
          </mxGeometry>
        </mxCell>
        <mxCell id="UiRvnEF1rh2FKo7EIy8x-75" value="datum" style="shape=partialRectangle;html=1;whiteSpace=wrap;connectable=0;strokeColor=inherit;overflow=hidden;fillColor=none;top=0;left=0;bottom=0;right=0;pointerEvents=1;fontSize=16;align=center;verticalAlign=middle;fontFamily=Helvetica;fontColor=default;fontStyle=1;" parent="UiRvnEF1rh2FKo7EIy8x-73" vertex="1">
          <mxGeometry x="100" width="100" height="50" as="geometry">
            <mxRectangle width="100" height="50" as="alternateBounds" />
          </mxGeometry>
        </mxCell>
        <mxCell id="UiRvnEF1rh2FKo7EIy8x-76" value="tipus" style="shape=partialRectangle;html=1;whiteSpace=wrap;connectable=0;strokeColor=inherit;overflow=hidden;fillColor=none;top=0;left=0;bottom=0;right=0;pointerEvents=1;fontSize=16;align=center;verticalAlign=middle;fontFamily=Helvetica;fontColor=default;fontStyle=1;" parent="UiRvnEF1rh2FKo7EIy8x-73" vertex="1">
          <mxGeometry x="200" width="100" height="50" as="geometry">
            <mxRectangle width="100" height="50" as="alternateBounds" />
          </mxGeometry>
        </mxCell>
        <mxCell id="UiRvnEF1rh2FKo7EIy8x-77" value="allat_id&lt;div&gt;FK&lt;/div&gt;" style="shape=partialRectangle;html=1;whiteSpace=wrap;connectable=0;strokeColor=inherit;overflow=hidden;fillColor=none;top=0;left=0;bottom=0;right=0;pointerEvents=1;fontSize=16;align=center;verticalAlign=middle;fontFamily=Helvetica;fontColor=default;fontStyle=1;" parent="UiRvnEF1rh2FKo7EIy8x-73" vertex="1">
          <mxGeometry x="300" width="100" height="50" as="geometry">
            <mxRectangle width="100" height="50" as="alternateBounds" />
          </mxGeometry>
        </mxCell>
        <mxCell id="UiRvnEF1rh2FKo7EIy8x-78" value="orvos_id&lt;div&gt;FK&lt;/div&gt;" style="shape=partialRectangle;html=1;whiteSpace=wrap;connectable=0;strokeColor=inherit;overflow=hidden;fillColor=none;top=0;left=0;bottom=0;right=0;pointerEvents=1;fontSize=16;align=center;verticalAlign=middle;fontFamily=Helvetica;fontColor=default;fontStyle=1;" parent="UiRvnEF1rh2FKo7EIy8x-73" vertex="1">
          <mxGeometry x="400" width="100" height="50" as="geometry">
            <mxRectangle width="100" height="50" as="alternateBounds" />
          </mxGeometry>
        </mxCell>
        <mxCell id="UiRvnEF1rh2FKo7EIy8x-79" value="Állatok" style="shape=table;startSize=30;container=1;collapsible=0;childLayout=tableLayout;strokeColor=default;fontSize=16;align=center;verticalAlign=middle;fontFamily=Helvetica;fontColor=default;fontStyle=1;fillColor=default;" parent="1" vertex="1">
          <mxGeometry x="950" y="530" width="480" height="80" as="geometry" />
        </mxCell>
        <mxCell id="UiRvnEF1rh2FKo7EIy8x-80" style="shape=tableRow;horizontal=0;startSize=0;swimlaneHead=0;swimlaneBody=0;strokeColor=inherit;top=0;left=0;bottom=0;right=0;collapsible=0;dropTarget=0;fillColor=none;points=[[0,0.5],[1,0.5]];portConstraint=eastwest;fontSize=16;align=center;verticalAlign=middle;fontFamily=Helvetica;fontColor=default;fontStyle=1;" parent="UiRvnEF1rh2FKo7EIy8x-79" vertex="1">
          <mxGeometry y="30" width="480" height="50" as="geometry" />
        </mxCell>
        <mxCell id="UiRvnEF1rh2FKo7EIy8x-81" value="&lt;u&gt;allat_id&lt;br&gt;PK&lt;/u&gt;" style="shape=partialRectangle;html=1;whiteSpace=wrap;connectable=0;strokeColor=inherit;overflow=hidden;fillColor=none;top=0;left=0;bottom=0;right=0;pointerEvents=1;fontSize=16;align=center;verticalAlign=middle;fontFamily=Helvetica;fontColor=default;fontStyle=1;" parent="UiRvnEF1rh2FKo7EIy8x-80" vertex="1">
          <mxGeometry width="96" height="50" as="geometry">
            <mxRectangle width="96" height="50" as="alternateBounds" />
          </mxGeometry>
        </mxCell>
        <mxCell id="UiRvnEF1rh2FKo7EIy8x-82" value="nev" style="shape=partialRectangle;html=1;whiteSpace=wrap;connectable=0;strokeColor=inherit;overflow=hidden;fillColor=none;top=0;left=0;bottom=0;right=0;pointerEvents=1;fontSize=16;align=center;verticalAlign=middle;fontFamily=Helvetica;fontColor=default;fontStyle=1;" parent="UiRvnEF1rh2FKo7EIy8x-80" vertex="1">
          <mxGeometry x="96" width="96" height="50" as="geometry">
            <mxRectangle width="96" height="50" as="alternateBounds" />
          </mxGeometry>
        </mxCell>
        <mxCell id="UiRvnEF1rh2FKo7EIy8x-83" value="faj" style="shape=partialRectangle;html=1;whiteSpace=wrap;connectable=0;strokeColor=inherit;overflow=hidden;fillColor=none;top=0;left=0;bottom=0;right=0;pointerEvents=1;fontSize=16;align=center;verticalAlign=middle;fontFamily=Helvetica;fontColor=default;fontStyle=1;" parent="UiRvnEF1rh2FKo7EIy8x-80" vertex="1">
          <mxGeometry x="192" width="95" height="50" as="geometry">
            <mxRectangle width="95" height="50" as="alternateBounds" />
          </mxGeometry>
        </mxCell>
        <mxCell id="UiRvnEF1rh2FKo7EIy8x-84" value="kor" style="shape=partialRectangle;html=1;whiteSpace=wrap;connectable=0;strokeColor=inherit;overflow=hidden;fillColor=none;top=0;left=0;bottom=0;right=0;pointerEvents=1;fontSize=16;align=center;verticalAlign=middle;fontFamily=Helvetica;fontColor=default;fontStyle=1;" parent="UiRvnEF1rh2FKo7EIy8x-80" vertex="1">
          <mxGeometry x="287" width="97" height="50" as="geometry">
            <mxRectangle width="97" height="50" as="alternateBounds" />
          </mxGeometry>
        </mxCell>
        <mxCell id="UiRvnEF1rh2FKo7EIy8x-85" value="gazda_id&lt;div&gt;FK&lt;/div&gt;" style="shape=partialRectangle;html=1;whiteSpace=wrap;connectable=0;strokeColor=inherit;overflow=hidden;fillColor=none;top=0;left=0;bottom=0;right=0;pointerEvents=1;fontSize=16;align=center;verticalAlign=middle;fontFamily=Helvetica;fontColor=default;fontStyle=1;" parent="UiRvnEF1rh2FKo7EIy8x-80" vertex="1">
          <mxGeometry x="384" width="96" height="50" as="geometry">
            <mxRectangle width="96" height="50" as="alternateBounds" />
          </mxGeometry>
        </mxCell>
        <mxCell id="UiRvnEF1rh2FKo7EIy8x-86" value="Orvosok" style="shape=table;startSize=30;container=1;collapsible=0;childLayout=tableLayout;strokeColor=default;fontSize=16;align=center;verticalAlign=middle;fontFamily=Helvetica;fontColor=default;fontStyle=1;fillColor=default;" parent="1" vertex="1">
          <mxGeometry x="1400" y="140" width="301" height="80" as="geometry" />
        </mxCell>
        <mxCell id="UiRvnEF1rh2FKo7EIy8x-87" style="shape=tableRow;horizontal=0;startSize=0;swimlaneHead=0;swimlaneBody=0;strokeColor=inherit;top=0;left=0;bottom=0;right=0;collapsible=0;dropTarget=0;fillColor=none;points=[[0,0.5],[1,0.5]];portConstraint=eastwest;fontSize=16;align=center;verticalAlign=middle;fontFamily=Helvetica;fontColor=default;fontStyle=1;" parent="UiRvnEF1rh2FKo7EIy8x-86" vertex="1">
          <mxGeometry y="30" width="301" height="50" as="geometry" />
        </mxCell>
        <mxCell id="UiRvnEF1rh2FKo7EIy8x-88" value="&lt;u&gt;orvos_id&lt;/u&gt;" style="shape=partialRectangle;html=1;whiteSpace=wrap;connectable=0;strokeColor=inherit;overflow=hidden;fillColor=none;top=0;left=0;bottom=0;right=0;pointerEvents=1;fontSize=16;align=center;verticalAlign=middle;fontFamily=Helvetica;fontColor=default;fontStyle=1;" parent="UiRvnEF1rh2FKo7EIy8x-87" vertex="1">
          <mxGeometry width="101" height="50" as="geometry">
            <mxRectangle width="101" height="50" as="alternateBounds" />
          </mxGeometry>
        </mxCell>
        <mxCell id="UiRvnEF1rh2FKo7EIy8x-89" value="nev" style="shape=partialRectangle;html=1;whiteSpace=wrap;connectable=0;strokeColor=inherit;overflow=hidden;fillColor=none;top=0;left=0;bottom=0;right=0;pointerEvents=1;fontSize=16;align=center;verticalAlign=middle;fontFamily=Helvetica;fontColor=default;fontStyle=1;" parent="UiRvnEF1rh2FKo7EIy8x-87" vertex="1">
          <mxGeometry x="101" width="99" height="50" as="geometry">
            <mxRectangle width="99" height="50" as="alternateBounds" />
          </mxGeometry>
        </mxCell>
        <mxCell id="UiRvnEF1rh2FKo7EIy8x-90" value="&#xa;&lt;span style=&quot;color: rgb(0, 0, 0); font-family: Helvetica; font-size: 16px; font-style: normal; font-variant-ligatures: normal; font-variant-caps: normal; font-weight: 700; letter-spacing: normal; orphans: 2; text-align: center; text-indent: 0px; text-transform: none; widows: 2; word-spacing: 0px; -webkit-text-stroke-width: 0px; white-space: normal; background-color: rgb(251, 251, 251); text-decoration-thickness: initial; text-decoration-style: initial; text-decoration-color: initial; display: inline !important; float: none;&quot;&gt;telefonszam&lt;/span&gt;&#xa;&#xa;" style="shape=partialRectangle;html=1;whiteSpace=wrap;connectable=0;strokeColor=inherit;overflow=hidden;fillColor=none;top=0;left=0;bottom=0;right=0;pointerEvents=1;fontSize=16;align=center;verticalAlign=middle;fontFamily=Helvetica;fontColor=default;fontStyle=1;" parent="UiRvnEF1rh2FKo7EIy8x-87" vertex="1">
          <mxGeometry x="200" width="101" height="50" as="geometry">
            <mxRectangle width="101" height="50" as="alternateBounds" />
          </mxGeometry>
        </mxCell>
        <mxCell id="UiRvnEF1rh2FKo7EIy8x-92" value="Kezelések" style="shape=table;startSize=30;container=1;collapsible=0;childLayout=tableLayout;strokeColor=default;fontSize=16;align=center;verticalAlign=middle;fontFamily=Helvetica;fontColor=default;fontStyle=1;fillColor=default;" parent="1" vertex="1">
          <mxGeometry x="840" y="140" width="500" height="80" as="geometry" />
        </mxCell>
        <mxCell id="UiRvnEF1rh2FKo7EIy8x-93" style="shape=tableRow;horizontal=0;startSize=0;swimlaneHead=0;swimlaneBody=0;strokeColor=inherit;top=0;left=0;bottom=0;right=0;collapsible=0;dropTarget=0;fillColor=none;points=[[0,0.5],[1,0.5]];portConstraint=eastwest;fontSize=16;align=center;verticalAlign=middle;fontFamily=Helvetica;fontColor=default;fontStyle=1;" parent="UiRvnEF1rh2FKo7EIy8x-92" vertex="1">
          <mxGeometry y="30" width="500" height="50" as="geometry" />
        </mxCell>
        <mxCell id="UiRvnEF1rh2FKo7EIy8x-94" value="&lt;u&gt;kezeles_id&lt;/u&gt;&lt;div&gt;PK&lt;/div&gt;" style="shape=partialRectangle;html=1;whiteSpace=wrap;connectable=0;strokeColor=inherit;overflow=hidden;fillColor=none;top=0;left=0;bottom=0;right=0;pointerEvents=1;fontSize=16;align=center;verticalAlign=middle;fontFamily=Helvetica;fontColor=default;fontStyle=1;" parent="UiRvnEF1rh2FKo7EIy8x-93" vertex="1">
          <mxGeometry width="100" height="50" as="geometry">
            <mxRectangle width="100" height="50" as="alternateBounds" />
          </mxGeometry>
        </mxCell>
        <mxCell id="UiRvnEF1rh2FKo7EIy8x-95" value="tipus" style="shape=partialRectangle;html=1;whiteSpace=wrap;connectable=0;strokeColor=inherit;overflow=hidden;fillColor=none;top=0;left=0;bottom=0;right=0;pointerEvents=1;fontSize=16;align=center;verticalAlign=middle;fontFamily=Helvetica;fontColor=default;fontStyle=1;" parent="UiRvnEF1rh2FKo7EIy8x-93" vertex="1">
          <mxGeometry x="100" width="100" height="50" as="geometry">
            <mxRectangle width="100" height="50" as="alternateBounds" />
          </mxGeometry>
        </mxCell>
        <mxCell id="UiRvnEF1rh2FKo7EIy8x-96" value="datum" style="shape=partialRectangle;html=1;whiteSpace=wrap;connectable=0;strokeColor=inherit;overflow=hidden;fillColor=none;top=0;left=0;bottom=0;right=0;pointerEvents=1;fontSize=16;align=center;verticalAlign=middle;fontFamily=Helvetica;fontColor=default;fontStyle=1;" parent="UiRvnEF1rh2FKo7EIy8x-93" vertex="1">
          <mxGeometry x="200" width="100" height="50" as="geometry">
            <mxRectangle width="100" height="50" as="alternateBounds" />
          </mxGeometry>
        </mxCell>
        <mxCell id="UiRvnEF1rh2FKo7EIy8x-97" value="vizsgalat_id&lt;div&gt;FK&lt;/div&gt;" style="shape=partialRectangle;html=1;whiteSpace=wrap;connectable=0;strokeColor=inherit;overflow=hidden;fillColor=none;top=0;left=0;bottom=0;right=0;pointerEvents=1;fontSize=16;align=center;verticalAlign=middle;fontFamily=Helvetica;fontColor=default;fontStyle=1;" parent="UiRvnEF1rh2FKo7EIy8x-93" vertex="1">
          <mxGeometry x="300" width="100" height="50" as="geometry">
            <mxRectangle width="100" height="50" as="alternateBounds" />
          </mxGeometry>
        </mxCell>
        <mxCell id="UiRvnEF1rh2FKo7EIy8x-98" value="orvos_id&lt;div&gt;FK&lt;/div&gt;" style="shape=partialRectangle;html=1;whiteSpace=wrap;connectable=0;strokeColor=inherit;overflow=hidden;fillColor=none;top=0;left=0;bottom=0;right=0;pointerEvents=1;fontSize=16;align=center;verticalAlign=middle;fontFamily=Helvetica;fontColor=default;fontStyle=1;" parent="UiRvnEF1rh2FKo7EIy8x-93" vertex="1">
          <mxGeometry x="400" width="100" height="50" as="geometry">
            <mxRectangle width="100" height="50" as="alternateBounds" />
          </mxGeometry>
        </mxCell>
        <mxCell id="UiRvnEF1rh2FKo7EIy8x-99" value="Gazdák" style="shape=table;startSize=30;container=1;collapsible=0;childLayout=tableLayout;strokeColor=default;fontSize=16;align=center;verticalAlign=middle;fontFamily=Helvetica;fontColor=default;fontStyle=1;fillColor=default;" parent="1" vertex="1">
          <mxGeometry x="1010" y="770" width="950" height="80" as="geometry" />
        </mxCell>
        <mxCell id="UiRvnEF1rh2FKo7EIy8x-100" style="shape=tableRow;horizontal=0;startSize=0;swimlaneHead=0;swimlaneBody=0;strokeColor=inherit;top=0;left=0;bottom=0;right=0;collapsible=0;dropTarget=0;fillColor=none;points=[[0,0.5],[1,0.5]];portConstraint=eastwest;fontSize=16;align=center;verticalAlign=middle;fontFamily=Helvetica;fontColor=default;fontStyle=1;" parent="UiRvnEF1rh2FKo7EIy8x-99" vertex="1">
          <mxGeometry y="30" width="950" height="50" as="geometry" />
        </mxCell>
        <mxCell id="UiRvnEF1rh2FKo7EIy8x-101" value="&lt;u&gt;gazda_id&lt;/u&gt;&lt;div&gt;PK&lt;/div&gt;" style="shape=partialRectangle;html=1;whiteSpace=wrap;connectable=0;strokeColor=inherit;overflow=hidden;fillColor=none;top=0;left=0;bottom=0;right=0;pointerEvents=1;fontSize=16;align=center;verticalAlign=middle;fontFamily=Helvetica;fontColor=default;fontStyle=1;" parent="UiRvnEF1rh2FKo7EIy8x-100" vertex="1">
          <mxGeometry width="135" height="50" as="geometry">
            <mxRectangle width="135" height="50" as="alternateBounds" />
          </mxGeometry>
        </mxCell>
        <mxCell id="UiRvnEF1rh2FKo7EIy8x-102" value="nev" style="shape=partialRectangle;html=1;whiteSpace=wrap;connectable=0;strokeColor=inherit;overflow=hidden;fillColor=none;top=0;left=0;bottom=0;right=0;pointerEvents=1;fontSize=16;align=center;verticalAlign=middle;fontFamily=Helvetica;fontColor=default;fontStyle=1;" parent="UiRvnEF1rh2FKo7EIy8x-100" vertex="1">
          <mxGeometry x="135" width="136" height="50" as="geometry">
            <mxRectangle width="136" height="50" as="alternateBounds" />
          </mxGeometry>
        </mxCell>
        <mxCell id="UiRvnEF1rh2FKo7EIy8x-103" value="&#xa;&lt;span style=&quot;color: rgb(0, 0, 0); font-family: Helvetica; font-size: 16px; font-style: normal; font-variant-ligatures: normal; font-variant-caps: normal; font-weight: 700; letter-spacing: normal; orphans: 2; text-indent: 0px; text-transform: none; widows: 2; word-spacing: 0px; -webkit-text-stroke-width: 0px; white-space: normal; background-color: rgb(251, 251, 251); text-decoration-thickness: initial; text-decoration-style: initial; text-decoration-color: initial; float: none; display: inline !important;&quot;&gt;telefonszam&lt;/span&gt;&#xa;&#xa;" style="shape=partialRectangle;html=1;whiteSpace=wrap;connectable=0;strokeColor=inherit;overflow=hidden;fillColor=none;top=0;left=0;bottom=0;right=0;pointerEvents=1;fontSize=16;align=center;verticalAlign=middle;fontFamily=Helvetica;fontColor=default;fontStyle=1;" parent="UiRvnEF1rh2FKo7EIy8x-100" vertex="1">
          <mxGeometry x="271" width="136" height="50" as="geometry">
            <mxRectangle width="136" height="50" as="alternateBounds" />
          </mxGeometry>
        </mxCell>
        <mxCell id="UiRvnEF1rh2FKo7EIy8x-104" value="cim_iranyitoszam" style="shape=partialRectangle;html=1;whiteSpace=wrap;connectable=0;strokeColor=inherit;overflow=hidden;fillColor=none;top=0;left=0;bottom=0;right=0;pointerEvents=1;fontSize=16;align=center;verticalAlign=middle;fontFamily=Helvetica;fontColor=default;fontStyle=1;" parent="UiRvnEF1rh2FKo7EIy8x-100" vertex="1">
          <mxGeometry x="407" width="136" height="50" as="geometry">
            <mxRectangle width="136" height="50" as="alternateBounds" />
          </mxGeometry>
        </mxCell>
        <mxCell id="a6uRbPy5a_1al0-03E7f-1" value="cim_varos" style="shape=partialRectangle;html=1;whiteSpace=wrap;connectable=0;strokeColor=inherit;overflow=hidden;fillColor=none;top=0;left=0;bottom=0;right=0;pointerEvents=1;fontSize=16;align=center;verticalAlign=middle;fontFamily=Helvetica;fontColor=default;fontStyle=1;" vertex="1" parent="UiRvnEF1rh2FKo7EIy8x-100">
          <mxGeometry x="543" width="135" height="50" as="geometry">
            <mxRectangle width="135" height="50" as="alternateBounds" />
          </mxGeometry>
        </mxCell>
        <mxCell id="a6uRbPy5a_1al0-03E7f-2" value="cim_utca" style="shape=partialRectangle;html=1;whiteSpace=wrap;connectable=0;strokeColor=inherit;overflow=hidden;fillColor=none;top=0;left=0;bottom=0;right=0;pointerEvents=1;fontSize=16;align=center;verticalAlign=middle;fontFamily=Helvetica;fontColor=default;fontStyle=1;" vertex="1" parent="UiRvnEF1rh2FKo7EIy8x-100">
          <mxGeometry x="678" width="137" height="50" as="geometry">
            <mxRectangle width="137" height="50" as="alternateBounds" />
          </mxGeometry>
        </mxCell>
        <mxCell id="a6uRbPy5a_1al0-03E7f-3" value="cim_hazszam" style="shape=partialRectangle;html=1;whiteSpace=wrap;connectable=0;strokeColor=inherit;overflow=hidden;fillColor=none;top=0;left=0;bottom=0;right=0;pointerEvents=1;fontSize=16;align=center;verticalAlign=middle;fontFamily=Helvetica;fontColor=default;fontStyle=1;" vertex="1" parent="UiRvnEF1rh2FKo7EIy8x-100">
          <mxGeometry x="815" width="135" height="50" as="geometry">
            <mxRectangle width="135" height="50" as="alternateBounds" />
          </mxGeometry>
        </mxCell>
        <mxCell id="UiRvnEF1rh2FKo7EIy8x-105" value="" style="endArrow=classic;html=1;rounded=0;fontFamily=Helvetica;fontSize=16;fontColor=default;fontStyle=1;exitX=0;exitY=0.5;exitDx=0;exitDy=0;entryX=0.854;entryY=1;entryDx=0;entryDy=0;entryPerimeter=0;" parent="1" source="UiRvnEF1rh2FKo7EIy8x-100" target="UiRvnEF1rh2FKo7EIy8x-80" edge="1">
          <mxGeometry width="50" height="50" relative="1" as="geometry">
            <mxPoint x="1330" y="420" as="sourcePoint" />
            <mxPoint x="1530" y="550" as="targetPoint" />
            <Array as="points">
              <mxPoint x="960" y="825" />
              <mxPoint x="960" y="720" />
              <mxPoint x="1360" y="720" />
            </Array>
          </mxGeometry>
        </mxCell>
        <mxCell id="UiRvnEF1rh2FKo7EIy8x-106" style="edgeStyle=orthogonalEdgeStyle;rounded=0;orthogonalLoop=1;jettySize=auto;html=1;exitX=0;exitY=0.5;exitDx=0;exitDy=0;entryX=0.684;entryY=1.016;entryDx=0;entryDy=0;entryPerimeter=0;fontFamily=Helvetica;fontSize=16;fontColor=default;fontStyle=1;" parent="1" source="UiRvnEF1rh2FKo7EIy8x-80" target="UiRvnEF1rh2FKo7EIy8x-73" edge="1">
          <mxGeometry relative="1" as="geometry" />
        </mxCell>
        <mxCell id="UiRvnEF1rh2FKo7EIy8x-107" style="edgeStyle=orthogonalEdgeStyle;rounded=0;orthogonalLoop=1;jettySize=auto;html=1;exitX=0;exitY=0.5;exitDx=0;exitDy=0;entryX=0.696;entryY=1.001;entryDx=0;entryDy=0;entryPerimeter=0;fontFamily=Helvetica;fontSize=16;fontColor=default;fontStyle=1;" parent="1" source="UiRvnEF1rh2FKo7EIy8x-73" target="UiRvnEF1rh2FKo7EIy8x-93" edge="1">
          <mxGeometry relative="1" as="geometry" />
        </mxCell>
        <mxCell id="UiRvnEF1rh2FKo7EIy8x-108" style="edgeStyle=orthogonalEdgeStyle;rounded=0;orthogonalLoop=1;jettySize=auto;html=1;entryX=0.893;entryY=1.02;entryDx=0;entryDy=0;entryPerimeter=0;fontFamily=Helvetica;fontSize=16;fontColor=default;fontStyle=1;" parent="1" target="UiRvnEF1rh2FKo7EIy8x-73" edge="1">
          <mxGeometry relative="1" as="geometry">
            <mxPoint x="1452" y="220" as="sourcePoint" />
            <mxPoint x="1968" y="250" as="targetPoint" />
            <Array as="points">
              <mxPoint x="1452" y="440" />
              <mxPoint x="1376" y="440" />
            </Array>
          </mxGeometry>
        </mxCell>
        <mxCell id="UiRvnEF1rh2FKo7EIy8x-110" style="edgeStyle=orthogonalEdgeStyle;rounded=0;orthogonalLoop=1;jettySize=auto;html=1;exitX=0;exitY=0.5;exitDx=0;exitDy=0;entryX=1;entryY=0.5;entryDx=0;entryDy=0;fontFamily=Helvetica;fontSize=16;fontColor=default;fontStyle=1;" parent="1" source="UiRvnEF1rh2FKo7EIy8x-87" target="UiRvnEF1rh2FKo7EIy8x-93" edge="1">
          <mxGeometry relative="1" as="geometry" />
        </mxCell>
        <mxCell id="UiRvnEF1rh2FKo7EIy8x-112" value="V-O" style="shape=table;startSize=30;container=1;collapsible=0;childLayout=tableLayout;strokeColor=default;fontSize=16;align=center;verticalAlign=middle;fontFamily=Helvetica;fontColor=default;fontStyle=1;fillColor=default;" parent="1" vertex="1">
          <mxGeometry x="1530" y="310" width="550" height="76" as="geometry" />
        </mxCell>
        <mxCell id="UiRvnEF1rh2FKo7EIy8x-113" style="shape=tableRow;horizontal=0;startSize=0;swimlaneHead=0;swimlaneBody=0;strokeColor=inherit;top=0;left=0;bottom=0;right=0;collapsible=0;dropTarget=0;fillColor=none;points=[[0,0.5],[1,0.5]];portConstraint=eastwest;fontSize=16;align=center;verticalAlign=middle;fontFamily=Helvetica;fontColor=default;fontStyle=1;" parent="UiRvnEF1rh2FKo7EIy8x-112" vertex="1">
          <mxGeometry y="30" width="550" height="46" as="geometry" />
        </mxCell>
        <mxCell id="UiRvnEF1rh2FKo7EIy8x-114" value="&lt;u&gt;vizsgalat_id&lt;br&gt;PK,FK&lt;/u&gt;" style="shape=partialRectangle;html=1;whiteSpace=wrap;connectable=0;strokeColor=inherit;overflow=hidden;fillColor=none;top=0;left=0;bottom=0;right=0;pointerEvents=1;fontSize=16;align=center;verticalAlign=middle;fontFamily=Helvetica;fontColor=default;fontStyle=1;" parent="UiRvnEF1rh2FKo7EIy8x-113" vertex="1">
          <mxGeometry width="139" height="46" as="geometry">
            <mxRectangle width="139" height="46" as="alternateBounds" />
          </mxGeometry>
        </mxCell>
        <mxCell id="UiRvnEF1rh2FKo7EIy8x-115" value="&lt;u&gt;orvos_id&lt;/u&gt;&lt;div&gt;&lt;u&gt;PK,FK&lt;/u&gt;&lt;/div&gt;" style="shape=partialRectangle;html=1;whiteSpace=wrap;connectable=0;strokeColor=inherit;overflow=hidden;fillColor=none;top=0;left=0;bottom=0;right=0;pointerEvents=1;fontSize=16;align=center;verticalAlign=middle;fontFamily=Helvetica;fontColor=default;fontStyle=1;" parent="UiRvnEF1rh2FKo7EIy8x-113" vertex="1">
          <mxGeometry x="139" width="137" height="46" as="geometry">
            <mxRectangle width="137" height="46" as="alternateBounds" />
          </mxGeometry>
        </mxCell>
        <mxCell id="a6uRbPy5a_1al0-03E7f-7" value="atlag_idotartam" style="shape=partialRectangle;html=1;whiteSpace=wrap;connectable=0;strokeColor=inherit;overflow=hidden;fillColor=none;top=0;left=0;bottom=0;right=0;pointerEvents=1;fontSize=16;align=center;verticalAlign=middle;fontFamily=Helvetica;fontColor=default;fontStyle=1;" vertex="1" parent="UiRvnEF1rh2FKo7EIy8x-113">
          <mxGeometry x="276" width="137" height="46" as="geometry">
            <mxRectangle width="137" height="46" as="alternateBounds" />
          </mxGeometry>
        </mxCell>
        <mxCell id="a6uRbPy5a_1al0-03E7f-8" value="vizsgalat_koltseg" style="shape=partialRectangle;html=1;whiteSpace=wrap;connectable=0;strokeColor=inherit;overflow=hidden;fillColor=none;top=0;left=0;bottom=0;right=0;pointerEvents=1;fontSize=16;align=center;verticalAlign=middle;fontFamily=Helvetica;fontColor=default;fontStyle=1;" vertex="1" parent="UiRvnEF1rh2FKo7EIy8x-113">
          <mxGeometry x="413" width="137" height="46" as="geometry">
            <mxRectangle width="137" height="46" as="alternateBounds" />
          </mxGeometry>
        </mxCell>
        <mxCell id="a6uRbPy5a_1al0-03E7f-5" style="edgeStyle=orthogonalEdgeStyle;rounded=0;orthogonalLoop=1;jettySize=auto;html=1;entryX=0.354;entryY=0.98;entryDx=0;entryDy=0;fontFamily=Helvetica;fontSize=16;fontColor=default;fontStyle=1;entryPerimeter=0;" edge="1" parent="1" target="UiRvnEF1rh2FKo7EIy8x-113">
          <mxGeometry relative="1" as="geometry">
            <mxPoint x="1462" y="220" as="sourcePoint" />
            <mxPoint x="1736.25" y="394.5079999999999" as="targetPoint" />
            <Array as="points">
              <mxPoint x="1462" y="280" />
              <mxPoint x="2110" y="280" />
              <mxPoint x="2110" y="420" />
              <mxPoint x="1725" y="420" />
            </Array>
          </mxGeometry>
        </mxCell>
        <mxCell id="a6uRbPy5a_1al0-03E7f-6" style="edgeStyle=orthogonalEdgeStyle;rounded=0;orthogonalLoop=1;jettySize=auto;html=1;exitX=0;exitY=0.787;exitDx=0;exitDy=0;entryX=0;entryY=0.5;entryDx=0;entryDy=0;fontFamily=Helvetica;fontSize=16;fontColor=default;fontStyle=1;exitPerimeter=0;" edge="1" parent="1" source="UiRvnEF1rh2FKo7EIy8x-73" target="UiRvnEF1rh2FKo7EIy8x-113">
          <mxGeometry relative="1" as="geometry">
            <mxPoint x="940" y="385" as="sourcePoint" />
            <mxPoint x="1198" y="230" as="targetPoint" />
            <Array as="points">
              <mxPoint x="880" y="389" />
              <mxPoint x="880" y="310" />
              <mxPoint x="1480" y="310" />
              <mxPoint x="1480" y="363" />
            </Array>
          </mxGeometry>
        </mxCell>
        <mxCell id="a6uRbPy5a_1al0-03E7f-9" value="Egzotikus Orvos" style="shape=table;startSize=30;container=1;collapsible=0;childLayout=tableLayout;strokeColor=default;fontSize=16;align=center;verticalAlign=middle;fontFamily=Helvetica;fontColor=default;fontStyle=1;fillColor=default;" vertex="1" parent="1">
          <mxGeometry x="1400" y="20" width="340" height="80" as="geometry" />
        </mxCell>
        <mxCell id="a6uRbPy5a_1al0-03E7f-10" style="shape=tableRow;horizontal=0;startSize=0;swimlaneHead=0;swimlaneBody=0;strokeColor=inherit;top=0;left=0;bottom=0;right=0;collapsible=0;dropTarget=0;fillColor=none;points=[[0,0.5],[1,0.5]];portConstraint=eastwest;fontSize=16;align=center;verticalAlign=middle;fontFamily=Helvetica;fontColor=default;fontStyle=1;" vertex="1" parent="a6uRbPy5a_1al0-03E7f-9">
          <mxGeometry y="30" width="340" height="50" as="geometry" />
        </mxCell>
        <mxCell id="a6uRbPy5a_1al0-03E7f-11" value="engedely_id&lt;div&gt;PK&lt;/div&gt;" style="shape=partialRectangle;html=1;whiteSpace=wrap;connectable=0;strokeColor=inherit;overflow=hidden;fillColor=none;top=0;left=0;bottom=0;right=0;pointerEvents=1;fontSize=16;align=center;verticalAlign=middle;fontFamily=Helvetica;fontColor=default;fontStyle=5;" vertex="1" parent="a6uRbPy5a_1al0-03E7f-10">
          <mxGeometry width="114" height="50" as="geometry">
            <mxRectangle width="114" height="50" as="alternateBounds" />
          </mxGeometry>
        </mxCell>
        <mxCell id="a6uRbPy5a_1al0-03E7f-12" value="orvos_id&lt;br&gt;FK" style="shape=partialRectangle;html=1;whiteSpace=wrap;connectable=0;strokeColor=inherit;overflow=hidden;fillColor=none;top=0;left=0;bottom=0;right=0;pointerEvents=1;fontSize=16;align=center;verticalAlign=middle;fontFamily=Helvetica;fontColor=default;fontStyle=1;" vertex="1" parent="a6uRbPy5a_1al0-03E7f-10">
          <mxGeometry x="114" width="112" height="50" as="geometry">
            <mxRectangle width="112" height="50" as="alternateBounds" />
          </mxGeometry>
        </mxCell>
        <mxCell id="a6uRbPy5a_1al0-03E7f-13" value="elvegzes_eve" style="shape=partialRectangle;html=1;whiteSpace=wrap;connectable=0;strokeColor=inherit;overflow=hidden;fillColor=none;top=0;left=0;bottom=0;right=0;pointerEvents=1;fontSize=16;align=center;verticalAlign=middle;fontFamily=Helvetica;fontColor=default;fontStyle=1;" vertex="1" parent="a6uRbPy5a_1al0-03E7f-10">
          <mxGeometry x="226" width="114" height="50" as="geometry">
            <mxRectangle width="114" height="50" as="alternateBounds" />
          </mxGeometry>
        </mxCell>
        <mxCell id="a6uRbPy5a_1al0-03E7f-15" style="edgeStyle=orthogonalEdgeStyle;rounded=0;orthogonalLoop=1;jettySize=auto;html=1;exitX=0;exitY=0.5;exitDx=0;exitDy=0;fontFamily=Helvetica;fontSize=16;fontColor=default;fontStyle=1;" edge="1" parent="1">
          <mxGeometry relative="1" as="geometry">
            <mxPoint x="1400" y="179.7" as="sourcePoint" />
            <mxPoint x="1560" y="100" as="targetPoint" />
            <Array as="points">
              <mxPoint x="1380" y="180" />
              <mxPoint x="1380" y="120" />
              <mxPoint x="1560" y="120" />
              <mxPoint x="1560" y="100" />
            </Array>
          </mxGeometry>
        </mxCell>
        <mxCell id="a6uRbPy5a_1al0-03E7f-17" value="Orvos_szakterulet" style="shape=table;startSize=30;container=1;collapsible=0;childLayout=tableLayout;strokeColor=default;fontSize=16;align=center;verticalAlign=middle;fontFamily=Helvetica;fontColor=default;fontStyle=1;fillColor=default;" vertex="1" parent="1">
          <mxGeometry x="1767" y="140" width="199" height="80" as="geometry" />
        </mxCell>
        <mxCell id="a6uRbPy5a_1al0-03E7f-18" style="shape=tableRow;horizontal=0;startSize=0;swimlaneHead=0;swimlaneBody=0;strokeColor=inherit;top=0;left=0;bottom=0;right=0;collapsible=0;dropTarget=0;fillColor=none;points=[[0,0.5],[1,0.5]];portConstraint=eastwest;fontSize=16;align=center;verticalAlign=middle;fontFamily=Helvetica;fontColor=default;fontStyle=1;" vertex="1" parent="a6uRbPy5a_1al0-03E7f-17">
          <mxGeometry y="30" width="199" height="50" as="geometry" />
        </mxCell>
        <mxCell id="a6uRbPy5a_1al0-03E7f-19" value="&lt;u&gt;orvos_id&lt;/u&gt;&lt;div&gt;&lt;u&gt;PK,FK&lt;/u&gt;&lt;/div&gt;" style="shape=partialRectangle;html=1;whiteSpace=wrap;connectable=0;strokeColor=inherit;overflow=hidden;fillColor=none;top=0;left=0;bottom=0;right=0;pointerEvents=1;fontSize=16;align=center;verticalAlign=middle;fontFamily=Helvetica;fontColor=default;fontStyle=1;" vertex="1" parent="a6uRbPy5a_1al0-03E7f-18">
          <mxGeometry width="101" height="50" as="geometry">
            <mxRectangle width="101" height="50" as="alternateBounds" />
          </mxGeometry>
        </mxCell>
        <mxCell id="a6uRbPy5a_1al0-03E7f-20" value="&lt;u&gt;szakterulet&lt;/u&gt;&lt;div&gt;&lt;u&gt;PK&lt;/u&gt;&lt;/div&gt;" style="shape=partialRectangle;html=1;whiteSpace=wrap;connectable=0;strokeColor=inherit;overflow=hidden;fillColor=none;top=0;left=0;bottom=0;right=0;pointerEvents=1;fontSize=16;align=center;verticalAlign=middle;fontFamily=Helvetica;fontColor=default;fontStyle=1;" vertex="1" parent="a6uRbPy5a_1al0-03E7f-18">
          <mxGeometry x="101" width="98" height="50" as="geometry">
            <mxRectangle width="98" height="50" as="alternateBounds" />
          </mxGeometry>
        </mxCell>
        <mxCell id="a6uRbPy5a_1al0-03E7f-22" style="edgeStyle=orthogonalEdgeStyle;rounded=0;orthogonalLoop=1;jettySize=auto;html=1;fontFamily=Helvetica;fontSize=16;fontColor=default;fontStyle=1;exitX=0.241;exitY=0.995;exitDx=0;exitDy=0;exitPerimeter=0;" edge="1" parent="1" source="UiRvnEF1rh2FKo7EIy8x-87" target="a6uRbPy5a_1al0-03E7f-18">
          <mxGeometry relative="1" as="geometry">
            <mxPoint x="1472" y="230" as="sourcePoint" />
            <mxPoint x="1920" y="490" as="targetPoint" />
            <Array as="points">
              <mxPoint x="1473" y="260" />
              <mxPoint x="1820" y="260" />
            </Array>
          </mxGeometry>
        </mxCell>
      </root>
    </mxGraphModel>
  </diagram>
</mxfile>
